# xmcd CD database file
#
# Track frame offsets:
#	150
#	18521
#	36636
#	58978
#	79574
#	96376
#	115408
#	131989
#	148264
#	165037
#	177959
#	196164
#
# Disc length: 2813 seconds
#
# Revision: 0
# Processed by: cddbd v1.5.1PL2 Copyright (c) Steve Scherf et al.
# Submitted via: CDex 1.51
#
DISCID=ac0afb0c
DTITLE=ORT - Off Road Tracks  Vol. 98
DYEAR=1
DGENRE=A_Sampler
TTITLE0=Heroin-Face Down
TTITLE1=Broderskapets Ring-Dimmu Borgir
TTITLE2=Une Saison En Enfer-The Ocean
TTITLE3=Maximum Satan-Annihilator
TTITLE4=Hate Yourself With Style-Clawfinger
TTITLE5=For The Last Time-Perzonal War
TTITLE6=Entrenched-Bolt Thrower
TTITLE7=Look Out-Hellfueled
TTITLE8=The Mirror-Nai Ssaion
TTITLE9=Absolution-Hurtlocker
TTITLE10=The Flame Still Burns-Razorback
TTITLE11=Vamos A La Playa-LosLos
EXTD=YEAR: 1
EXTT0=
EXTT1=
EXTT2=
EXTT3=
EXTT4=
EXTT5=
EXTT6=
EXTT7=
EXTT8=
EXTT9=
EXTT10=
EXTT11=
PLAYORDER=
